<?xml version="1.0"?><svg fill="#000000" xmlns="http://www.w3.org/2000/svg"  viewBox="0 0 50 50" width="50px" height="50px">    <path d="M 17.5 2 C 17.2495 2 16.998687 2.09425 16.804688 2.28125 L 2.3046875 16.28125 C 2.0116875 16.56425 1.9192656 16.997 2.0722656 17.375 C 2.2252656 17.753 2.592 18 3 18 L 9 18 L 9 40 C 9 40.552 9.448 41 10 41 L 21.966797 41 L 15.916016 35.15625 C 15.031016 34.30225 14.75775 33.015953 15.21875 31.876953 C 15.67975 30.736953 16.771 30 18 30 L 24 30 L 24 18 L 32 18 C 32.408 18 32.774734 17.752 32.927734 17.375 C 33.080734 16.998 32.988313 16.56425 32.695312 16.28125 L 18.195312 2.28125 C 18.001312 2.09425 17.7505 2 17.5 2 z M 28.033203 9 L 34.083984 14.84375 C 34.967984 15.69775 35.240297 16.985 34.779297 18.125 C 34.320297 19.264 33.229 20 32 20 L 26 20 L 26 32 L 18 32 C 17.592 32 17.225266 32.248 17.072266 32.625 C 16.919266 33.002 17.011688 33.43575 17.304688 33.71875 L 31.804688 47.71875 C 31.998687 47.90575 32.25 48 32.5 48 C 32.75 48 33.001312 47.90575 33.195312 47.71875 L 47.695312 33.71875 C 47.988312 33.43575 48.080734 33.003 47.927734 32.625 C 47.775734 32.248 47.408 32 47 32 L 41 32 L 41 10 C 41 9.448 40.552 9 40 9 L 28.033203 9 z"/></svg>